# xmcd CD database file
#
# Track frame offsets:
#	150
#	14346
#	37402
#	57819
#	73692
#	93507
#	114327
#	135338
#	152555
#	172077
#	193069
#	221990
#	239702
#
# Disc length: 3331 seconds
#
# Revision: 0
# Processed by: cddbd v1.5.2PL0 Copyright (c) Steve Scherf et al.
# Submitted via: CDex 1.51
#
DISCID=c10d010d
DTITLE=Dallas, Othella - I Live The Life I Love
DYEAR=2008
DGENRE=Jazz
TTITLE0=Lil'Gal From Memphis
TTITLE1=Help The Poor
TTITLE2=One For My Baby
TTITLE3=On My Way Back Home
TTITLE4=I Believe To My Soul
TTITLE5=Blues For Mister Charlie
TTITLE6=C.C. Rider
TTITLE7=Do Nothing Till You Hear From Me
TTITLE8=Fever
TTITLE9=Georgia
TTITLE10=Bird In The Sky
TTITLE11=Birth Of The Blues
TTITLE12=I Love The Life I Live
EXTD=YEAR: 2008
EXTT0=
EXTT1=
EXTT2=
EXTT3=
EXTT4=
EXTT5=
EXTT6=
EXTT7=
EXTT8=
EXTT9=
EXTT10=
EXTT11=
EXTT12=
PLAYORDER=
